# xmcd
#
# Track frame offsets:
#	150
#	12620
#	24910
#	38955
#	51645
#	65800
#	77182
#	89302
#	102952
#	115422
#	129110
#	142635
#	155672
#	169682
#
# Disc length: 2431 seconds
#
# Revision: 1
# Processed by: cddbd v1.5.2PL0 Copyright (c) Steve Scherf et al.
# Submitted via: audiograbber 1.83.01
#
DISCID=b9097d0e
DTITLE=Die Steigerburschen - Leute, laßt es krachen.....
DYEAR=1900
DGENRE=
TTITLE0=Die Steigerburschen - Von ganz besondrer Art
TTITLE1=Die Steigerburschen - Das war noch nicht der letzte Kuß
TTITLE2=Die Steigerburschen - Bitte komm zu uns zurück
TTITLE3=Die Steigerburschen - Heinzel Boarischer
TTITLE4=Die Steigerburschen - lederhosenlatz
TTITLE5=Die Steigerburschen - wir grüßen Euch
TTITLE6=Die Steigerburschen - Gruß an Slowenien
TTITLE7=Die Steigerburschen - Leute laßt es krachen
TTITLE8=Die Steigerburschen - Es klingt Musik
TTITLE9=Die Steigerburschen - Nimm ein bischen mehr Rücksicht
TTITLE10=Die Steigerburschen - Wir Musikanten sind da
TTITLE11=Die Steigerburschen - Bombige Mädchen
TTITLE12=Die Steigerburschen - Sehnsucht nach deiner Nähe
TTITLE13=Die Steigerburschen - Hey Heya
EXTD=
EXTT0=
EXTT1=
EXTT2=
EXTT3=
EXTT4=
EXTT5=
EXTT6=
EXTT7=
EXTT8=
EXTT9=
EXTT10=
EXTT11=
EXTT12=
EXTT13=
PLAYORDER=
